<?xml version="1.0" standalone="no"?>
<!DOCTYPE svg PUBLIC "-//W3C//DTD SVG 20010904//EN"
 "http://www.w3.org/TR/2001/REC-SVG-20010904/DTD/svg10.dtd">
<svg version="1.0" xmlns="http://www.w3.org/2000/svg"
 width="204.000000pt" height="192.000000pt" viewBox="0 0 204.000000 192.000000"
 preserveAspectRatio="xMidYMid meet">

<g transform="translate(0.000000,192.000000) scale(0.100000,-0.100000)"
fill="#000000" stroke="none">
<path d="M640 1896 c-126 -53 -218 -112 -316 -203 -277 -258 -384 -653 -278
-1021 79 -273 276 -505 531 -628 l91 -44 354 0 354 0 95 48 c255 128 445 354
523 624 92 319 24 665 -182 918 -96 118 -223 218 -360 283 l-87 42 -335 2
c-330 3 -336 2 -390 -21z m10 -324 c14 -11 34 -40 44 -65 l19 -45 -24 -49
c-50 -100 -171 -105 -229 -10 -26 42 -25 86 3 128 45 67 127 85 187 41z m58
-744 l2 -448 -135 0 -135 0 0 450 0 451 133 -3 132 -3 3 -447z m382 405 c0
-46 1 -47 16 -25 31 45 91 66 189 67 134 0 205 -36 251 -128 44 -85 53 -173
54 -484 l0 -283 -135 0 -135 0 0 286 0 286 -29 29 c-25 24 -38 29 -80 29 -27
0 -62 -5 -76 -12 -52 -23 -55 -43 -55 -343 l0 -275 -135 0 -135 0 0 450 0 450
135 0 135 0 0 -47z"/>
</g>
</svg>
