<svg xmlns="http://www.w3.org/2000/svg" version="1.1" xmlns:xlink="http://www.w3.org/1999/xlink" xmlns:svgjs="http://svgjs.dev/svgjs" width="1500" height="1687" viewBox="0 0 1500 1687"><g transform="matrix(1,0,0,1,0.0009843749999163265,0)"><svg viewBox="0 0 320 360" data-background-color="#ffffff" preserveAspectRatio="xMidYMid meet" height="1687" width="1500" xmlns="http://www.w3.org/2000/svg" xmlns:xlink="http://www.w3.org/1999/xlink"><g id="tight-bounds" transform="matrix(1,0,0,1,-0.00020999999998139174,0)"><svg viewBox="0 0 320 360" height="360" width="320"><g><svg></svg></g><g><svg viewBox="0 0 320 360" height="360" width="320"><g><path transform="translate(-17.77778,2.22222) scale(3.55556,3.55556)" d="M95 52c0-12.871-5.692-24.431-14.682-32.318-7.887-8.99-19.447-14.682-32.318-14.682-23.71 0-43 19.29-43 43 0 12.868 5.69 24.426 14.677 32.313 7.887 8.993 19.449 14.687 32.323 14.687 0.084 0 0.166-0.006 0.25-0.006 0.084 0 0.166 0.006 0.25 0.006 23.472 0 42.5-19.028 42.5-42.5 0-0.084-0.006-0.166-0.006-0.25 0-0.084 0.006-0.166 0.006-0.25zM21.828 73.371c-4.245-5.978-6.77-13.259-6.822-21.121 0.135-20.511 16.732-37.109 37.244-37.244 7.862 0.052 15.144 2.577 21.121 6.822 6.853 6.645 11.129 15.93 11.129 26.172 0 20.126-16.374 36.5-36.5 36.5-10.242 0-19.527-4.276-26.172-11.129zM6 48c0-23.159 18.841-42 42-42 9.858 0 18.926 3.422 26.1 9.13-6.463-3.888-14.024-6.13-22.1-6.13-23.71 0-43 19.29-43 43 0 8.074 2.241 15.633 6.127 22.095-5.706-7.172-9.127-16.239-9.127-26.095zM52 89c-10.08 0-19.227-4.055-25.905-10.615 6.174 4.469 13.743 7.115 21.905 7.115 20.678 0 37.5-16.822 37.5-37.5 0-8.162-2.646-15.731-7.115-21.905 6.56 6.678 10.615 15.825 10.615 25.905 0 20.402-16.598 37-37 37z" fill="#b927c3" fill-rule="nonzero" stroke="none" stroke-width="1" stroke-linecap="butt" stroke-linejoin="miter" stroke-miterlimit="10" stroke-dasharray="" stroke-dashoffset="0" font-family="none" font-weight="none" font-size="none" text-anchor="none" style="mix-blend-mode: normal" data-fill-palette-color="tertiary"></path></g><g transform="matrix(1,0,0,1,64,147.9780026969452)"><svg viewBox="0 0 192 64.04399460610962" height="64.04399460610962" width="192"><g><svg viewBox="0 0 381.9415739052545 127.40137551581842" height="64.04399460610962" width="192"><g><rect width="11.43202738530949" height="127.40137551581842" x="148.5827732599725" y="0" fill="#b927c3" opacity="1" stroke-width="0" stroke="transparent" fill-opacity="1" class="rect-qz-0" data-fill-palette-color="primary" rx="1%" id="qz-0" data-palette-color="#b927c3"></rect></g><g transform="matrix(1,0,0,1,189.94157390525447,0.3169188445667075)"><svg viewBox="0 0 192 126.767537826685" height="126.767537826685" width="192"><g id="textblocktransform"><svg viewBox="0 0 192 126.767537826685" height="126.767537826685" width="192" id="textblock"><g><svg viewBox="0 0 192 126.767537826685" height="126.767537826685" width="192"><g transform="matrix(1,0,0,1,0,0)"><svg width="192" viewBox="0.81 -34.35 53.239999999999995 35.160000000000004" height="126.767537826685" data-palette-color="#b927c3"><path d="M29.15-33.54L29.15-25.56 26.2-25.56 25.49-30.25Q25.32-31.1 24.66-31.1L24.66-31.1 17.5-31.1 17.5-3.44Q17.5-3.08 17.76-2.73 18.02-2.39 18.55-2.34L18.55-2.34 21.75-2.15 21.75 0 8.2 0 8.2-2.15 11.4-2.34Q11.94-2.39 12.19-2.73 12.45-3.08 12.45-3.44L12.45-3.44 12.45-31.1 5.25-31.1Q4.47-31.1 4.39-30.25L4.39-30.25 3.71-25.56 0.81-25.56 0.81-33.54 29.15-33.54ZM54.05-9.4L54.05-9.4Q54.05-6.88 52.7-4.54 51.34-2.2 48.42-0.7 45.51 0.81 40.79 0.81L40.79 0.81Q37.84 0.81 35.43 0.18 33.03-0.44 31.91-1.05L31.91-1.05 31.91-9.91 35.06-9.91 35.72-4.25Q35.76-3.96 36.03-3.61 36.3-3.27 36.55-3.15L36.55-3.15Q37.33-2.76 38.57-2.38 39.82-2 41.6-2L41.6-2Q44.8-2 46.87-3.56 48.95-5.13 48.95-7.91L48.95-7.91Q48.95-9.64 47.85-10.88 46.75-12.11 44.79-13.21 42.82-14.31 40.16-15.55L40.16-15.55Q38.11-16.53 36.35-17.64 34.59-18.75 33.52-20.39 32.44-22.02 32.44-24.56L32.44-24.56Q32.44-27.54 33.96-29.74 35.47-31.93 38.08-33.14 40.7-34.35 43.99-34.35L43.99-34.35Q46.6-34.35 48.89-33.78 51.17-33.2 52.81-32.64L52.81-32.64 52.81-24.85 49.95-24.85 49.19-29.64Q49.17-29.91 48.92-30.13 48.68-30.35 48.46-30.49L48.46-30.49Q48.07-30.76 47.07-31.2 46.07-31.64 44.06-31.64L44.06-31.64Q41.06-31.64 39.33-29.97 37.6-28.3 37.6-25.76L37.6-25.76Q37.6-23.46 39.39-21.95 41.18-20.43 44.55-19.14L44.55-19.14Q49.09-17.43 51.57-15.3 54.05-13.16 54.05-9.4Z" opacity="1" transform="matrix(1,0,0,1,0,0)" fill="#b927c3" class="wordmark-text-0" data-fill-palette-color="primary" id="text-0"></path></svg></g></svg></g></svg></g></svg></g><g transform="matrix(1,0,0,1,0,9.118927757909205)"><svg viewBox="0 0 118.656 109.16352" height="109.16352" width="118.656"><g><svg xmlns:x="http://ns.adobe.com/Extensibility/1.0/" xmlns:i="http://ns.adobe.com/AdobeIllustrator/10.0/" xmlns:graph="http://ns.adobe.com/Graphs/1.0/" xmlns="http://www.w3.org/2000/svg" xmlns:xlink="http://www.w3.org/1999/xlink" version="1.1" x="0" y="0" viewBox="7 9 50 46" enable-background="new 0 0 64 64" xml:space="preserve" height="109.16352" width="118.656" class="icon-icon-0" data-fill-palette-color="accent" id="icon-0"><g fill="#ff585f" data-fill-palette-color="accent"><g fill="#ff585f" data-fill-palette-color="accent"><path d="M56 9H8c-0.552 0-1 0.448-1 1v36c0 0.553 0.448 1 1 1h23v6h-9c-0.552 0-1 0.447-1 1s0.448 1 1 1h20c0.553 0 1-0.447 1-1s-0.447-1-1-1h-9v-6h23c0.553 0 1-0.447 1-1V10C57 9.448 56.553 9 56 9zM55 45H9V11h46V45z" fill="#ff585f" data-fill-palette-color="accent"></path><path d="M23.293 32.707C23.488 32.902 23.744 33 24 33s0.512-0.098 0.707-0.293c0.391-0.391 0.391-1.023 0-1.414L21.414 28l3.293-3.293c0.391-0.391 0.391-1.023 0-1.414s-1.023-0.391-1.414 0l-4 4c-0.391 0.391-0.391 1.023 0 1.414L23.293 32.707z" fill="#ff585f" data-fill-palette-color="accent"></path><path d="M39.293 32.707C39.488 32.902 39.744 33 40 33s0.512-0.098 0.707-0.293l4-4c0.391-0.391 0.391-1.023 0-1.414l-4-4c-0.391-0.391-1.023-0.391-1.414 0s-0.391 1.023 0 1.414L42.586 28l-3.293 3.293C38.902 31.684 38.902 32.316 39.293 32.707z" fill="#ff585f" data-fill-palette-color="accent"></path><path d="M29.757 36.97C29.839 36.99 29.92 37 30.001 37c0.448 0 0.855-0.303 0.969-0.758l4-16c0.135-0.536-0.191-1.079-0.728-1.213-0.535-0.138-1.079 0.192-1.212 0.728l-4 16C28.896 36.293 29.222 36.836 29.757 36.97z" fill="#ff585f" data-fill-palette-color="accent"></path></g></g></svg><g></g></g></svg></g></svg></g></svg></g></svg></g><defs></defs></svg><rect width="320" height="360" fill="none" stroke="none" visibility="hidden"></rect></g></svg></g></svg>